<?xml version="1.0" encoding="UTF-8"?><svg xmlns="http://www.w3.org/2000/svg" viewBox="0 0 903.89 903.89"><defs><style>.e{fill:none;stroke:#009596;stroke-linecap:round;stroke-miterlimit:133.33;stroke-width:35px;}</style></defs><g id="a"/><g id="b"><g id="c"><g id="d"><circle cx="451.94" cy="451.94" r="451.94"/><g><path class="e" d="M358.91,177.38h-33.33c-55.23,0-100,41.6-100,92.91v92.91c0,51.32-44.77,92.91-100,92.91h0c55.23,0,100,41.6,100,92.91v123.89c0,51.32,44.77,92.91,100,92.91h33.33"/><path class="e" d="M543.24,105.84h33.33c55.23,0,100,41.6,100,92.91v92.91c0,51.32,44.77,92.91,100,92.91-55.23,0-100,41.6-100,92.91v123.89c0,51.32-44.77,92.91-100,92.91h-33.33"/><line class="e" x1="340.73" y1="177.38" x2="590.73" y2="177.38"/><line class="e" x1="340.73" y1="765.84" x2="590.73" y2="765.84"/><line class="e" x1="308.73" y1="694.29" x2="558.73" y2="694.29"/><line class="e" x1="308.73" y1="694.29" x2="308.73" y2="250.43"/><line class="e" x1="590.73" y1="622" x2="590.73" y2="178.13"/></g></g></g></g></svg>